<?xml version="1.0" encoding="UTF-8"?>
<svg id="Layer_1" data-name="Layer 1" xmlns="http://www.w3.org/2000/svg" viewBox="0 0 50 50">
  <defs>
    <style>
      .cls-1 {
        fill: #000;
        stroke-width: 0px;
      }
    </style>
  </defs>
  <polygon class="cls-1" points="16.81 22.61 16.28 22.61 16.28 24.08 14.47 24.08 14.47 22.61 13.95 22.61 13.95 24.08 12.14 24.08 12.14 22.61 11.61 22.61 11.61 24.08 9.8 24.08 9.8 22.61 9.28 22.61 9.28 24.08 7.47 24.08 7.47 22.61 6.94 22.61 6.94 24.08 6.11 24.08 6.11 25.65 6.94 25.65 6.94 27.12 7.47 27.12 7.47 25.65 9.28 25.65 9.28 27.12 9.8 27.12 9.8 25.65 11.61 25.65 11.61 27.12 12.14 27.12 12.14 25.65 13.95 25.65 13.95 27.12 14.47 27.12 14.47 25.65 16.28 25.65 16.28 27.12 16.81 27.12 16.81 25.65 17.64 25.65 17.64 24.08 16.81 24.08 16.81 22.61"/>
  <polygon class="cls-1" points="38.39 22.61 37.87 22.61 37.87 24.08 36.05 24.08 36.05 22.61 35.53 22.61 35.53 24.08 33.72 24.08 33.72 22.61 33.2 22.61 33.2 24.08 32.36 24.08 32.36 25.65 33.2 25.65 33.2 27.12 33.72 27.12 33.72 25.65 35.53 25.65 35.53 27.12 36.05 27.12 36.05 25.65 37.87 25.65 37.87 27.12 38.39 27.12 38.39 25.65 40.2 25.65 40.2 27.12 40.72 27.12 40.72 25.65 42.54 25.65 42.54 27.12 43.06 27.12 43.06 25.65 43.89 25.65 43.89 24.08 43.06 24.08 43.06 22.61 42.54 22.61 42.54 24.08 40.72 24.08 40.72 22.61 40.2 22.61 40.2 24.08 38.39 24.08 38.39 22.61"/>
  <path class="cls-1" d="M25.86,21.38c-.28-.07-.56-.11-.86-.11s-.58.04-.86.11c-1.57.39-2.74,1.8-2.74,3.49s1.17,3.1,2.74,3.49c.28.07.56.11.86.11s.58-.04.86-.11c1.57-.39,2.74-1.8,2.74-3.49s-1.17-3.1-2.74-3.49Z"/>
  <polygon class="cls-1" points="24.22 17.51 25.79 17.51 25.79 16.67 27.25 16.67 27.25 16.15 25.79 16.15 25.79 14.34 27.25 14.34 27.25 13.81 25.79 13.81 25.79 12 27.25 12 27.25 11.48 25.79 11.48 25.79 9.67 27.25 9.67 27.25 9.14 25.79 9.14 25.79 7.33 27.25 7.33 27.25 6.81 25.79 6.81 25.79 5.97 24.22 5.97 24.22 6.81 22.75 6.81 22.75 7.33 24.22 7.33 24.22 9.14 22.75 9.14 22.75 9.67 24.22 9.67 24.22 11.48 22.75 11.48 22.75 12 24.22 12 24.22 13.81 22.75 13.81 22.75 14.34 24.22 14.34 24.22 16.15 22.75 16.15 22.75 16.67 24.22 16.67 24.22 17.51"/>
  <polygon class="cls-1" points="25.79 32.23 24.22 32.23 24.22 33.06 22.75 33.06 22.75 33.58 24.22 33.58 24.22 35.4 22.75 35.4 22.75 35.92 24.22 35.92 24.22 37.73 22.75 37.73 22.75 38.25 24.22 38.25 24.22 40.07 22.75 40.07 22.75 40.59 24.22 40.59 24.22 42.4 22.75 42.4 22.75 42.92 24.22 42.92 24.22 43.76 25.79 43.76 25.79 42.92 27.25 42.92 27.25 42.4 25.79 42.4 25.79 40.59 27.25 40.59 27.25 40.07 25.79 40.07 25.79 38.25 27.25 38.25 27.25 37.73 25.79 37.73 25.79 35.92 27.25 35.92 27.25 35.4 25.79 35.4 25.79 33.58 27.25 33.58 27.25 33.06 25.79 33.06 25.79 32.23"/>
  <path class="cls-1" d="M50,23.75h-3.3c-.56-11.12-9.38-20.06-20.45-20.81V0h-2.5v2.91C12.45,3.42,3.37,12.46,2.81,23.75H0v2.5h2.82c.69,11.16,9.72,20.06,20.93,20.57v3.18h2.5v-3.21c10.98-.74,19.75-9.54,20.43-20.54h3.32v-2.5ZM24.75,45.24c-11.25,0-20.37-9.12-20.37-20.38S13.5,4.49,24.75,4.49s20.38,9.12,20.38,20.37-9.12,20.38-20.38,20.38Z"/>
</svg>