<svg data-name="Layer 1" xmlns="http://www.w3.org/2000/svg" xmlns:xlink="http://www.w3.org/1999/xlink" viewBox="0 0 388 84"><defs><linearGradient id="a" x1="35.36" y1="41.31" x2="60.18" y2="16.49" gradientUnits="userSpaceOnUse"><stop offset="0" stop-color="#fff" stop-opacity=".3"/><stop offset="1" stop-color="#fff" stop-opacity=".1"/></linearGradient><linearGradient id="d" x1="100.4" y1="41.31" x2="125.22" y2="16.49" xlink:href="#a"/><filter id="b" filterUnits="userSpaceOnUse"><feOffset dx="-2" dy="5"/><feGaussianBlur result="blur" stdDeviation="7"/><feFlood flood-color="#000" flood-opacity=".75"/><feComposite in2="blur" operator="in"/><feComposite in="SourceGraphic"/></filter><filter id="c" filterUnits="userSpaceOnUse"><feOffset dx="-2" dy="5"/><feGaussianBlur result="blur-2" stdDeviation="7"/><feFlood flood-color="#000" flood-opacity=".75"/><feComposite in2="blur-2" operator="in"/><feComposite in="SourceGraphic"/></filter></defs><rect x="23.87" y="16.76" width="41.16" height="41.16" rx="7.84" ry="7.84" style="filter:url(#b);fill:#000;stroke-width:0"/><path d="M65.03 24.6a7.84 7.84 0 0 0-7.84-7.84H31.7a7.84 7.84 0 0 0-7.84 7.84v4.58c4 5.64 10.23 10.42 17.96 13.15 8.11 2.87 16.35 2.93 23.2.75V24.6Z" style="stroke-width:0;fill:url(#a)"/><rect x="338" y="18" width="50" height="50" rx="6.21" ry="6.21" style="fill:#000;stroke-width:0"/><path d="M365.94 44.67V62h-6.98V44.67h-5.83v-6.76h5.83v-4.98c0-5.78 3.53-8.93 8.69-8.93 2.47 0 4.59.18 5.21.27v6.04h-3.58c-2.8 0-3.35 1.33-3.35 3.29v4.31h6.69l-.87 6.76h-5.82Z" style="fill:#f1f2f2;stroke-width:0"/><path d="M96.75 16.76h25.49a7.84 7.84 0 0 1 7.84 7.84v25.49a7.84 7.84 0 0 1-7.84 7.84H96.75a7.84 7.84 0 0 1-7.84-7.84V24.6a7.84 7.84 0 0 1 7.84-7.84Z" style="filter:url(#c);fill:#000;stroke-width:0"/><path d="M130.08 24.6a7.84 7.84 0 0 0-7.84-7.84H96.75a7.84 7.84 0 0 0-7.84 7.84v4.58c4 5.64 10.23 10.42 17.96 13.15 8.11 2.87 16.35 2.93 23.2.75V24.6Z" style="fill:url(#d);stroke-width:0"/></svg>