<svg id="Layer_1" data-name="Layer 1" xmlns="http://www.w3.org/2000/svg" viewBox="0 0 50 50"><defs><style>.cls-1{fill:#000;stroke-width:0}</style></defs><path class="cls-1" d="M25.39 49.98a1.23 1.23 0 0 1-.02-2.46c5.73-.09 11.16-2.34 15.28-6.32a1.231 1.231 0 0 1 1.71 1.77 24.884 24.884 0 0 1-16.96 7.01h-.02ZM24.61 2.48c-.67 0-1.22-.54-1.23-1.21 0-.68.53-1.24 1.21-1.25h.11c.1-.01.19-.02.29-.02a1.23 1.23 0 1 1 0 2.46h-.12c-.08.01-.17.02-.25.02h-.02ZM1.23 26.23C.55 26.23 0 25.68 0 25c0-7.18 3.11-14.02 8.53-18.78a1.234 1.234 0 0 1 1.63 1.85C5.27 12.36 2.46 18.53 2.46 25c0 .68-.55 1.23-1.23 1.23Z"/><path class="cls-1" d="M24.61 49.98h-.02a24.86 24.86 0 0 1-16.95-7.01 1.231 1.231 0 0 1 1.71-1.77c4.12 3.98 9.55 6.23 15.28 6.32a1.23 1.23 0 0 1-.02 2.46Z"/><path class="cls-1" d="M8.5 43.31c-.31 0-.62-.12-.86-.35C2.71 38.21 0 31.83 0 25a1.23 1.23 0 1 1 2.46 0c0 6.15 2.45 11.9 6.89 16.19.49.47.5 1.25.03 1.74-.24.25-.56.38-.89.38ZM25 50c-.1 0-.2 0-.3-.01h-.11c-.68-.02-1.22-.59-1.21-1.27.02-.67.56-1.21 1.23-1.21h.03c.08 0 .16 0 .24.01H25c.68 0 1.23.56 1.23 1.24s-.55 1.23-1.23 1.23Z"/><path class="cls-1" d="M25 50a1.23 1.23 0 1 1 0-2.46h.12c.08-.01.16-.02.24-.02.64 0 1.24.52 1.26 1.21.01.68-.52 1.24-1.21 1.26h-.11c-.1.01-.2.02-.3.02ZM40.65 8.38c-.29 0-.58-.1-.81-.31-4.01-3.52-9.15-5.5-14.47-5.59a1.23 1.23 0 0 1-1.21-1.25c.01-.68.56-1.2 1.25-1.21 5.91.1 11.61 2.3 16.06 6.2.51.45.56 1.23.11 1.74-.24.28-.58.42-.93.42Z"/><path class="cls-1" d="M9.35 8.38a1.234 1.234 0 0 1-.82-2.16C12.98 2.32 18.69.11 24.59.02c.71-.03 1.24.53 1.25 1.21.01.68-.53 1.24-1.21 1.25-5.32.09-10.46 2.07-14.47 5.59-.23.21-.52.31-.81.31Z"/><path class="cls-1" d="M25.39 2.48h-.02c-.08 0-.17 0-.25-.01H25c-.68 0-1.23-.56-1.23-1.24S24.32 0 25 0c.1 0 .2 0 .29.01h.11c.68.02 1.22.58 1.21 1.26-.01.67-.56 1.21-1.23 1.21ZM41.51 43.31c-.32 0-.64-.13-.89-.38-.47-.49-.46-1.27.03-1.74 4.44-4.29 6.89-10.04 6.89-16.19 0-6.47-2.8-12.64-7.7-16.93a1.234 1.234 0 0 1 1.63-1.85C46.89 10.98 50 17.82 50 25s-2.71 13.21-7.64 17.97c-.24.23-.55.35-.86.35Z"/><path class="cls-1" d="M16.42 12.32c-.2 0-.41-.05-.6-.16-.6-.33-.81-1.08-.48-1.68 2.17-3.91 5.26-7.35 8.95-9.96.55-.39 1.33-.26 1.72.29.39.56.26 1.32-.29 1.72a27.749 27.749 0 0 0-8.21 9.14c-.23.41-.65.63-1.08.63Z"/><path class="cls-1" d="M25 2.77c-.39 0-.77-.18-1.01-.52-.39-.56-.26-1.32.3-1.72l.14-.1c.09-.07.17-.13.26-.19.56-.39 1.33-.24 1.71.32.39.56.24 1.33-.32 1.71-.05.04-.1.07-.15.11-.08.06-.15.12-.23.17-.22.15-.46.23-.71.23ZM15.79 38.89c-.45 0-.89-.25-1.11-.69-2.05-4.17-3.09-8.61-3.09-13.2a1.23 1.23 0 1 1 2.46 0c0 4.21.96 8.28 2.84 12.11.3.61.05 1.35-.56 1.65-.17.09-.36.13-.54.13ZM25.39 49.98c-.24 0-.48-.07-.69-.21-.1-.06-.19-.13-.28-.2l-.13-.1a1.234 1.234 0 1 1 1.42-2.02c.08.05.15.11.22.16.05.04.1.08.15.11.56.38.71 1.15.33 1.71-.24.35-.63.54-1.02.54Z"/><path class="cls-1" d="M25 49.69c-.25 0-.49-.07-.71-.23-4.08-2.88-7.4-6.78-9.61-11.27a1.233 1.233 0 0 1 2.21-1.09 27.65 27.65 0 0 0 8.82 10.34c.56.39.69 1.16.29 1.72-.24.34-.62.52-1.01.52ZM12.82 26.23c-.68 0-1.23-.55-1.23-1.23 0-5.06 1.3-10.08 3.75-14.51.33-.6 1.08-.81 1.68-.48.6.33.81 1.08.48 1.68A27.548 27.548 0 0 0 14.06 25c0 .68-.55 1.23-1.23 1.23Z"/><path class="cls-1" d="M16.42 12.32c-.14 0-.28-.02-.42-.07-2.7-.98-5.2-2.37-7.42-4.14-.53-.42-.62-1.2-.2-1.73s1.2-.62 1.73-.2c2.01 1.6 4.27 2.86 6.73 3.75.64.23.97.94.74 1.58-.18.5-.65.81-1.16.81ZM33.58 12.32c-.5 0-.98-.31-1.16-.81-.23-.64.1-1.35.74-1.58 2.45-.89 4.72-2.15 6.73-3.75.53-.42 1.31-.34 1.73.2.42.53.34 1.31-.2 1.73A26.471 26.471 0 0 1 34 12.25c-.14.05-.28.07-.42.07Z"/><path class="cls-1" d="M25 13.85a1.23 1.23 0 1 1 0-2.46c2.75 0 5.49-.49 8.16-1.46.64-.23 1.35.1 1.58.74.23.64-.1 1.35-.74 1.58-2.94 1.06-5.96 1.6-9 1.6Z"/><path class="cls-1" d="M25 13.85c-3.04 0-6.06-.54-9-1.6-.64-.23-.97-.94-.74-1.58.23-.64.94-.97 1.58-.74 2.67.97 5.41 1.46 8.16 1.46a1.23 1.23 0 1 1 0 2.46ZM41.5 43.31c-.29 0-.57-.1-.81-.3-2.06-1.79-4.4-3.21-6.94-4.21-.63-.25-.94-.96-.7-1.6.25-.63.96-.94 1.6-.7 2.8 1.1 5.37 2.67 7.65 4.64.51.45.57 1.23.12 1.74-.24.28-.59.42-.93.42Z"/><path class="cls-1" d="M34.21 38.89c-.15 0-.3-.03-.45-.09-2.83-1.11-5.77-1.68-8.76-1.68a1.23 1.23 0 1 1 0-2.46c3.3 0 6.55.62 9.66 1.85.63.25.94.96.7 1.6-.19.49-.66.78-1.15.78Z"/><path class="cls-1" d="M15.79 38.89c-.49 0-.96-.3-1.15-.78-.25-.63.06-1.35.7-1.6 3.12-1.23 6.37-1.85 9.66-1.85a1.23 1.23 0 1 1 0 2.46c-2.99 0-5.93.56-8.76 1.68-.15.06-.3.09-.45.09Z"/><path class="cls-1" d="M8.5 43.31c-.34 0-.69-.14-.93-.42-.45-.51-.39-1.29.12-1.74 2.27-1.98 4.85-3.54 7.65-4.64.63-.25 1.35.06 1.6.7.25.63-.06 1.35-.7 1.6-2.54 1-4.87 2.42-6.94 4.21-.23.2-.52.3-.81.3ZM37.18 26.23c-.68 0-1.23-.55-1.23-1.23 0-4.65-1.19-9.25-3.44-13.31-.33-.6-.12-1.35.48-1.68.6-.33 1.35-.12 1.68.48 2.46 4.43 3.75 9.45 3.75 14.51 0 .68-.55 1.23-1.23 1.23ZM25 2.77c-.24 0-.49-.07-.7-.22l-.24-.18-.14-.11c-.56-.39-.7-1.15-.32-1.71.39-.56 1.15-.7 1.71-.32.09.06.17.12.25.19l.14.1a1.236 1.236 0 0 1-.7 2.25ZM24.61 49.98c-.4 0-.78-.19-1.02-.54-.38-.56-.23-1.33.33-1.71.05-.03.09-.07.14-.1.08-.06.15-.12.23-.18a1.236 1.236 0 0 1 1.41 2.03l-.13.1c-.09.07-.18.14-.27.2-.21.14-.45.21-.69.21Z"/><path class="cls-1" d="M34.21 38.89c-.18 0-.37-.04-.54-.13-.61-.3-.86-1.04-.56-1.65 1.88-3.83 2.84-7.9 2.84-12.11a1.23 1.23 0 1 1 2.46 0c0 4.59-1.04 9.03-3.09 13.2-.21.44-.65.69-1.11.69Z"/><path class="cls-1" d="M25 49.69c-.39 0-.77-.18-1.01-.52-.39-.56-.26-1.32.29-1.72 3.74-2.65 6.79-6.22 8.82-10.34a1.233 1.233 0 0 1 2.21 1.09 30.173 30.173 0 0 1-9.61 11.27c-.22.15-.46.23-.71.23ZM33.58 12.32c-.43 0-.85-.23-1.08-.63a27.749 27.749 0 0 0-8.21-9.14c-.56-.39-.69-1.16-.29-1.72.39-.56 1.16-.69 1.72-.29 3.68 2.61 6.78 6.05 8.94 9.96.33.6.12 1.35-.48 1.68-.19.1-.39.15-.6.15ZM12.82 26.23H1.23a1.23 1.23 0 1 1 0-2.46h11.59a1.23 1.23 0 1 1 0 2.46ZM37.18 26.23H25a1.23 1.23 0 1 1 0-2.46h12.18a1.23 1.23 0 1 1 0 2.46Z"/><path class="cls-1" d="M25 26.23H12.82a1.23 1.23 0 1 1 0-2.46H25a1.23 1.23 0 1 1 0 2.46ZM48.07 26.23H37.18a1.23 1.23 0 1 1 0-2.46h10.89a1.23 1.23 0 1 1 0 2.46ZM25 13.85c-.68 0-1.23-.55-1.23-1.23V1.54a1.23 1.23 0 1 1 2.46 0v11.08c0 .68-.55 1.23-1.23 1.23Z"/><path class="cls-1" d="M25 26.23c-.68 0-1.23-.55-1.23-1.23V12.62a1.23 1.23 0 1 1 2.46 0V25c0 .68-.55 1.23-1.23 1.23ZM25 49.69c-.68 0-1.23-.55-1.23-1.23V35.89a1.23 1.23 0 1 1 2.46 0v12.57c0 .68-.55 1.23-1.23 1.23ZM25 2.77c-.68 0-1.23-.55-1.23-1.23v-.31a1.23 1.23 0 1 1 2.46 0v.31c0 .68-.55 1.23-1.23 1.23Z"/><path class="cls-1" d="M25 37.12c-.68 0-1.23-.55-1.23-1.23V25a1.23 1.23 0 1 1 2.46 0v10.89c0 .68-.55 1.23-1.23 1.23ZM25 50c-.68 0-1.23-.55-1.23-1.23v-.31a1.23 1.23 0 1 1 2.46 0v.31c0 .68-.55 1.23-1.23 1.23Z"/></svg>