<?xml version="1.0" encoding="UTF-8"?>
<svg id="Layer_1" data-name="Layer 1" xmlns="http://www.w3.org/2000/svg" viewBox="0 0 48.02 49.01">
  <defs>
    <style>
      .cls-1 {
        fill: #1dace3;
        stroke-width: 0px;
      }
    </style>
  </defs>
  <path class="cls-1" d="M45.87,19.45c-5.34.07-10.68.03-16.02.03-1.53,0-3.05-.03-4.58.03-.29,0-.81.36-.81.56-.05,3.08-.04,6.15-.04,9.4h13.08c-.17.64-.28,1.09-.43,1.54-2.01,5.95-8.15,8.89-14.73,7.82-8.18-1.34-13.27-8.92-11.81-17.11.21-1.16.57-2.26,1.04-3.29,2.7-5.95,9.39-9.56,16.01-8.11,2.37.52,4.39,1.67,6.14,3.19,2.38-2.4,4.69-4.73,7.15-7.21-.16-.12-.39-.29-.6-.46C34.49.94,27.86-.85,20.44.37,9.76,2.11,2.08,10.52.36,20.34c-.73,4.2-.39,8.65,1.29,12.96,4.06,10.43,14.55,16.79,25.76,15.56,5.47-.6,10.36-2.58,14.18-6.65,5.63-6,7.08-13.25,6.18-21.2-.15-1.33-.69-1.58-1.91-1.56Z"/>
</svg>