<svg data-name="Layer 1" xmlns="http://www.w3.org/2000/svg" viewBox="0 0 50 48.2"><path d="M48.96 20.65 27.18.84a3.236 3.236 0 0 0-4.35 0L1.05 20.65c-1.31 1.19-1.4 3.23-.2 4.55.64.69 1.52 1.05 2.39 1.05.78 0 1.57-.28 2.18-.84L24.99 7.57l19.6 17.83c1.31 1.19 3.36 1.11 4.56-.21a3.214 3.214 0 0 0-.19-4.55ZM7.75 26.21v20.16c.01.76.51 1.24.92 1.47.42.24.88.35 1.37.35h29.92c.49 0 .95-.11 1.37-.35.41-.23.89-.71.92-1.47V26.21L24.99 10.52 7.75 26.21Zm10.14-1.59h14.17v9.88H17.89v-9.88ZM4.48 2.59 17.74 3 5.32 14.99l-.83-12.4Z" style="fill:#000;stroke-width:0"/></svg>