<svg id="Layer_1" data-name="Layer 1" xmlns="http://www.w3.org/2000/svg" viewBox="0 0 50 50"><defs><style>.cls-1{fill:#000;stroke-width:0}</style></defs><path class="cls-1" d="M25 28.05H2.85c-1.5 0-2.66-1-2.82-2.43a2.73 2.73 0 0 1 2.61-3.02h44.51c1.04 0 1.87.41 2.43 1.3 1.09 1.76-.12 4.04-2.19 4.14h-22.4ZM25 11.35H2.85c-1.26 0-2.27-.68-2.67-1.78-.65-1.79.61-3.6 2.55-3.67h44.29c1.35 0 2.33.61 2.78 1.72.69 1.72-.55 3.64-2.4 3.72H25ZM25.02 39.3h22.11c1.37 0 2.44.79 2.77 2.03.42 1.6-.68 3.21-2.33 3.39-.17.02-.34.03-.51.03H2.9c-1.2 0-2.12-.49-2.63-1.6-.48-1.02-.32-2.01.39-2.88.53-.65 1.24-.97 2.09-.97h22.28Z"/></svg>