<svg data-name="Layer 1" xmlns="http://www.w3.org/2000/svg" viewBox="0 0 50 50"><path d="M24.35 0h1.3c.06 0 .13.02.19.02 1.92.06 3.8.34 5.65.84 2.35.63 4.56 1.59 6.63 2.87 2.06 1.27 3.9 2.82 5.52 4.62 2.18 2.44 3.82 5.19 4.91 8.27.86 2.4 1.33 4.87 1.42 7.42 0 .1.02.2.03.31v1.3c0 .06-.02.12-.02.18a24.64 24.64 0 0 1-.75 5.34 24.93 24.93 0 0 1-6.55 11.51 26.405 26.405 0 0 1-4.07 3.31c-1.38.91-2.84 1.69-4.39 2.29-2.48.97-5.05 1.51-7.71 1.67-.22.01-.45.03-.67.05h-1.95c-.05 0-.11-.02-.16-.02-1.87-.07-3.7-.35-5.5-.85-1.6-.45-3.14-1.06-4.61-1.84a26.69 26.69 0 0 1-4.78-3.22 24.963 24.963 0 0 1-7.4-10.74C.65 31.15.2 28.92.05 26.62c-.01-.26-.03-.52-.05-.79v-1.67c.02-.22.03-.44.05-.66a24.68 24.68 0 0 1 2.58-9.67c1.38-2.76 3.22-5.18 5.49-7.27 2.17-1.99 4.62-3.55 7.34-4.67C18.23.75 21.11.13 24.09.02c.09 0 .17-.02.26-.02Zm-.37 28.83v-.02c-.27-.05-.54-.09-.81-.14-3.12-.66-5.48-2.37-6.98-5.2-1.13-2.13-1.4-4.4-.87-6.76a9.793 9.793 0 0 1 2.76-4.93 9.65 9.65 0 0 1 3.69-2.26c1.59-.54 3.21-.66 4.87-.39 1.49.24 2.86.8 4.09 1.68 1.78 1.27 3.01 2.95 3.68 5.03.72 2.26.7 4.52-.21 6.72-1.4 3.39-3.95 5.43-7.53 6.19-.19.04-.38.07-.57.1.07.03.14.04.21.05.86.12 1.72.2 2.58.36 1.99.37 3.87 1.05 5.64 2.04 1.68.94 3.21 2.09 4.57 3.45 1.36 1.36 2.48 2.88 3.38 4.58.07.14.15.28.23.42 7.07-8.21 7.75-22.15-1.69-31.32C31.62-.69 16.35-.21 7.58 9.91-.67 19.44.89 32.43 7.29 39.74c.02-.03.04-.07.06-.1.4-.76.83-1.49 1.32-2.2 1.22-1.8 2.7-3.36 4.45-4.66 2.27-1.68 4.81-2.79 7.56-3.43.84-.2 1.71-.29 2.57-.43.25-.04.5-.07.74-.11Z" style="fill:#000;stroke-width:0"/></svg>