<svg xmlns="http://www.w3.org/2000/svg" viewBox="0 0 50 49.67"><defs><style>.cls-1{fill:#000}.cls-1,.cls-2,.cls-3{stroke-width:0}.cls-3{opacity:.5}.cls-2{fill:#333}.cls-3{fill:#fff;mix-blend-mode:screen}</style></defs><g style="isolation:isolate"><g id="Layer_1" data-name="Layer 1"><path class="cls-2" transform="rotate(-28.68 24.833 27.977)" d="M23.69 24.58h2.29v6.82h-2.29z"/><path class="cls-1" d="m25.68 27.16-1.23-2.25c-.31.21-.64.41-.98.6s-.68.35-1.03.5l1.23 2.25c.35-.15.69-.32 1.03-.5.34-.18.66-.38.98-.59Z"/><g style="opacity:.5"><circle cx="17.35" cy="14.3" r="11.74" transform="rotate(-2.6 17.311 14.28)" style="fill:#dadada"/></g><path class="cls-3" d="M7.82 13.41a.74.74 0 0 1-.44.08.707.707 0 0 1-.59-.8c.11-.74.31-1.48.58-2.18a.707.707 0 0 1 1.32.5c-.23.61-.4 1.25-.5 1.9a.67.67 0 0 1-.36.51ZM13.1 23.79c-.2.11-.44.12-.66 0a10.676 10.676 0 0 1-5.57-7.37.705.705 0 0 1 1.38-.28c.18.91.51 1.79.96 2.62a9.209 9.209 0 0 0 3.88 3.79.699.699 0 0 1 .01 1.24Z"/><path class="cls-1" d="M10.49 1.76C3.56 5.55 1.01 14.24 4.8 21.17s12.48 9.47 19.41 5.68c6.93-3.79 9.47-12.48 5.68-19.41-3.78-6.93-12.47-9.47-19.4-5.68Zm12.5 22.85c-5.69 3.11-12.83 1.02-15.94-4.67C3.94 14.25 6.03 7.11 11.72 4 17.41.89 24.55 2.98 27.66 8.67c3.11 5.69 1.02 12.83-4.67 15.94Z"/><path class="cls-1" transform="rotate(-28.68 31.321 39.846)" d="M29.3 29.74h4.05v20.2H29.3z"/><path class="cls-2" transform="rotate(-28.68 30.403 40.34)" d="M30.01 30.24h.8v20.2h-.8z"/><path class="cls-1" transform="rotate(-28.68 32.51 39.191)" d="M31.85 29.09h1.33v20.2h-1.33z"/></g></g></svg>